<?xml version="1.0" encoding="utf-8"?>
<!-- Generator: Adobe Illustrator 21.0.0, SVG Export Plug-In . SVG Version: 6.00 Build 0)  -->
<svg version="1.1" id="cyberpower" xmlns="http://www.w3.org/2000/svg" xmlns:xlink="http://www.w3.org/1999/xlink" x="0px" y="0px"
	 viewBox="0 0 200 82" style="enable-background:new 0 0 200 82;" xml:space="preserve">
<style type="text/css">
	.st0{fill:#d50032;}
</style>
<g>
	<g>
		<path class="st0" d="M26.2,43.7c0-0.4-0.2-0.7-0.5-1c-0.4-0.4-1-0.6-1.6-0.5c-0.9,0-1.7,0.8-1.7,1.6v0.6c0,3-2.1,4.8-5.6,4.8
			c-3.3,0-5.7-2.1-5.7-4.8v-12c0-2.7,2.5-4.8,5.7-4.8c3.7,0,6,1.9,6,4.8v0.7c0,0.8,0.7,1.5,1.6,1.5c0.9,0,1.6-0.7,1.6-1.5v-0.7
			c0-4.7-4.8-8.6-10.6-8.6C9.8,23.9,5,27.7,5,32.5v12C5,49.2,9.8,53,15.6,53c5.8,0,10.6-3.9,10.6-8.6V43.7L26.2,43.7z"/>
		<path class="st0" d="M41.3,35.1c-1,0-1.8,0.5-2.1,1.2l-2.7,5.9c-0.1,0.2-0.4,0.5-0.6,0.5c-0.1,0-0.3,0-0.5-0.5l-2.9-5.3
			c-0.8-1.6-1.9-1.8-3-1.8c-1.3,0-2.4,0.5-2.9,1.4c-0.4,0.7-0.4,1.4,0,2.1l4.2,7.2c1.4,2.4,1.8,4.4,1.2,6.1
			c-0.7,1.8-2.5,3.2-5.6,4.4l-1.1,0.4c-0.9,0.3-1.4,1.2-1.2,2.1c0.3,1.1,1.8,1.6,2.9,1.3h0l1.1-0.3c5.2-1.4,8.6-4.4,10.2-9l4.8-13.7
			c0.1-0.5,0.1-1-0.2-1.3C42.4,35.3,41.9,35.1,41.3,35.1L41.3,35.1z"/>
		<path class="st0" d="M54.3,35c-1.7,0-3.1,0.6-3.9,1.1c0-1.5,0-9.2,0-9.2c0-2.1-1.5-3-3.1-3c-2,0-3.1,1.1-3.1,3v24.6
			c0,1,0.6,1.7,1.6,1.7c0.6,0,0.9-0.3,1.2-0.5l0.1-0.1c0,0,1.4-1.1,2-1.6c1.4,1.4,3.1,2.2,5.2,2.2c3.9,0,7.6-3.1,7.6-6.3v-5.5
			C61.9,38.1,58.2,35,54.3,35L54.3,35z M55.7,42.1v4.8c0,1.5-1.8,2.4-3,2.4c-0.7,0-3-0.2-3-2.4v-5.5c0-2.1,2.1-2.4,3.3-2.4
			C54.7,38.9,55.7,40.5,55.7,42.1L55.7,42.1z"/>
		<path class="st0" d="M72.1,35.1c-4.3,0-8.8,2.4-8.8,6.2v5.5c0,3.7,4.9,6.2,9.4,6.2h2.3c1.5,0,2-0.7,2-1.4c0-0.7-0.5-1.4-2-1.4
			h-2.3c-2.1,0-3.6-1.7-3.6-3.3v-1.6c0-0.1,0-0.3,0.6-0.3H78c1.7,0,3-1,3-2.2v-1.4c0-1.4-0.5-2.6-1.6-3.6
			C77.9,36.1,75.1,35.1,72.1,35.1L72.1,35.1z M74.8,40.6V41c0,0.2-0.1,0.5-0.4,0.5h-4.2c-0.3,0-0.6-0.2-0.6-0.4v-0.6
			c0,0,0-1.9,2.5-1.9C74.3,38.6,74.8,39.8,74.8,40.6L74.8,40.6z"/>
		<path class="st0" d="M94.3,35.1h-1.1c-1.4,0-3.1,0.9-4.4,2.2c0,0-0.3,0.4-0.6,0.6c-0.6-0.4-2.9-2.3-2.9-2.3
			c-0.3-0.2-0.7-0.6-1.4-0.6c-1,0-1.5,0.8-1.5,1.5v13.8c0,1.4,1.4,2.6,3.1,2.6c1.7,0,3.1-1.2,3.1-2.6c0,0,0-8.7,0-9.2
			c0.2-0.2,0.8-0.7,0.8-0.7c0.8-0.6,1.9-1,3.2-1h1.7c1.5,0,2.7-1,2.7-2.2C97,36.2,95.8,35.1,94.3,35.1L94.3,35.1z"/>
		<path class="st0" d="M106.2,52.5h-7.5V28.4h9.9c2.4,0,5,0.1,7.1,1.3c2.3,1.3,3.6,3.7,3.6,6.3c0,2.3-0.9,4.5-2.7,5.9
			c-1.9,1.5-4.3,1.9-6.6,1.9h-3.8V52.5 M108.1,38.6c1.7,0,3.7-0.1,3.7-2.4c0-2.1-1.8-2.3-3.5-2.3h-2.1v4.7H108.1L108.1,38.6z"/>
		<path class="st0" d="M138.1,43.7c0,5.5-4.4,9.2-9.9,9.2c-5.5,0-9.9-3.7-9.9-9.2c0-5.8,4.3-9.5,9.9-9.5
			C133.8,34.2,138.1,37.9,138.1,43.7 M125.8,43.4c0,4.8,1.2,5.2,2.4,5.2c1.3,0,2.4-0.4,2.4-5.2c0-1.7,0-4.9-2.4-4.9
			C125.8,38.6,125.8,41.7,125.8,43.4L125.8,43.4z"/>
		<polygon class="st0" points="157.7,52.5 152.6,52.5 150.3,42.8 150.2,42.8 147.8,52.5 142.8,52.5 137,34.5 143.9,34.5 146.3,43.3 
			146.3,43.3 148.6,34.5 153.8,34.5 156,43.3 158.5,34.5 163.4,34.5 157.7,52.5 		"/>
		<path class="st0" d="M181.8,46.5c-1.1,4.4-5,6.4-9.2,6.4c-2.6,0-5.2-0.6-7.2-2.4c-1.9-1.7-3-4.2-3-6.8c0-2.4,0.9-5.1,2.6-6.8
			c1.8-1.9,4.6-2.8,7.1-2.8c6,0,9.7,3.9,9.7,9.8v0.9h-12c-0.1,1.9,0.6,3.3,2.7,3.3c1.6,0,2.5-0.6,2.7-2.2L181.8,46.5 M174.8,41.4
			c0-1.8-0.6-3.1-2.5-3.1c-1.8,0-2.6,1.4-2.5,3.1H174.8L174.8,41.4z"/>
		<path class="st0" d="M189.4,38.2c0.6-2.5,1.9-4.3,4.7-4.1l1,0.1v6.3c-0.4-0.1-0.9-0.2-1.3-0.2c-1.1,0-2.3,0.2-2.8,1.2
			c-0.5,0.9-0.5,2-0.5,3.1v7.8h-7v-18h5.9L189.4,38.2L189.4,38.2L189.4,38.2z"/>
	</g>
</g>
</svg>
